<?xml version="1.0" encoding="UTF-8" standalone="no"?>
<!DOCTYPE svg PUBLIC "-//W3C//DTD SVG 1.1//EN"
 "http://www.w3.org/Graphics/SVG/1.1/DTD/svg11.dtd">
<!-- Generated by graphviz version 2.26.3 (20100126.1600)
 -->
<!-- Title: models_diagram Pages: 1 -->
<svg width="651pt" height="270pt"
 viewBox="0.00 0.00 651.00 270.00" xmlns="http://www.w3.org/2000/svg" xmlns:xlink="http://www.w3.org/1999/xlink">
<g id="graph1" class="graph" transform="scale(1 1) rotate(0) translate(4 266)">
<title>models_diagram</title>
<polygon fill="white" stroke="white" points="-4,5 -4,-266 648,-266 648,5 -4,5"/>
<!-- _diagram_info -->
<g id="node1" class="node"><title>_diagram_info</title>
<text text-anchor="start" x="8" y="-245.8" font-family="Times Roman,serif" font-size="13.00">Models diagram</text>
<text text-anchor="start" x="8" y="-228.8" font-family="Times Roman,serif" font-size="13.00">Date: Apr 03 2014 &#45; 07:38</text>
<text text-anchor="start" x="8" y="-211.8" font-family="Times Roman,serif" font-size="13.00">Migration version: 20140403061239</text>
<text text-anchor="start" x="8" y="-194.8" font-family="Times Roman,serif" font-size="13.00">Generated by RailRoady 1.1.1</text>
<text text-anchor="start" x="8" y="-177.8" font-family="Times Roman,serif" font-size="13.00">http://railroady.prestonlee.com</text>
</g>
<!-- Auditinit -->
<g id="node2" class="node"><title>Auditinit</title>
<ellipse fill="none" stroke="black" cx="326" cy="-111" rx="53.2379" ry="18.3848"/>
<text text-anchor="middle" x="326" y="-107.4" font-family="Times Roman,serif" font-size="14.00">Auditinit</text>
</g>
<!-- AuditCatValue -->
<g id="node3" class="node"><title>AuditCatValue</title>
<ellipse fill="none" stroke="black" cx="151" cy="-19" rx="82.0244" ry="18.3848"/>
<text text-anchor="middle" x="151" y="-15.4" font-family="Times Roman,serif" font-size="14.00">AuditCatValue</text>
</g>
<!-- Auditinit&#45;&gt;AuditCatValue -->
<g id="edge2" class="edge"><title>Auditinit&#45;&gt;AuditCatValue</title>
<path fill="none" stroke="#7abd6f" d="M289.063,-91.5816C260.857,-76.7537 221.981,-56.3156 192.667,-40.9048"/>
<ellipse fill="none" stroke="#7abd6f" cx="292.773" cy="-93.5321" rx="4.00002" ry="4.00002"/>
<polygon fill="#7abd6f" stroke="#7abd6f" points="192.362,-40.7448 185.605,-32.1083 187.937,-38.4181 183.511,-36.0914 183.511,-36.0914 183.511,-36.0914 187.937,-38.4181 181.417,-40.0745 192.362,-40.7448 192.362,-40.7448"/>
</g>
<!-- Catvalues -->
<g id="node8" class="node"><title>Catvalues</title>
<ellipse fill="none" stroke="black" cx="311" cy="-19" rx="60.1041" ry="18.3848"/>
<text text-anchor="middle" x="311" y="-15.4" font-family="Times Roman,serif" font-size="14.00">Catvalues</text>
</g>
<!-- Auditinit&#45;&gt;Catvalues -->
<g id="edge4" class="edge"><title>Auditinit&#45;&gt;Catvalues</title>
<path fill="none" stroke="#205630" d="M321.327,-82.3416C319.524,-71.2828 317.466,-58.6574 315.664,-47.6037"/>
<polygon fill="#205630" stroke="#205630" points="321.355,-82.5127 318.523,-93.1066 322.16,-87.4476 322.965,-92.3824 322.965,-92.3824 322.965,-92.3824 322.16,-87.4476 327.406,-91.6583 321.355,-82.5127 321.355,-82.5127"/>
<polygon fill="#205630" stroke="#205630" points="315.64,-47.4596 318.472,-36.8657 314.836,-42.5247 314.031,-37.5899 314.031,-37.5899 314.031,-37.5899 314.836,-42.5247 309.59,-38.3141 315.64,-47.4596 315.64,-47.4596"/>
<text text-anchor="middle" x="352" y="-61.4" font-family="Times Roman,serif" font-size="14.00">catvalues</text>
</g>
<!-- Categories -->
<g id="node10" class="node"><title>Categories</title>
<ellipse fill="none" stroke="black" cx="452" cy="-19" rx="63.1385" ry="18.3848"/>
<text text-anchor="middle" x="452" y="-15.4" font-family="Times Roman,serif" font-size="14.00">Categories</text>
</g>
<!-- Auditinit&#45;&gt;Categories -->
<g id="edge6" class="edge"><title>Auditinit&#45;&gt;Categories</title>
<path fill="none" stroke="#067d11" d="M363.891,-90.2931C372.346,-85.2509 381.133,-79.6685 389,-74 401.702,-64.8479 414.881,-53.6479 425.881,-43.7489"/>
<polygon fill="#067d11" stroke="#067d11" points="363.89,-90.2939 352.985,-91.4463 359.571,-92.8135 355.253,-95.3332 355.253,-95.3332 355.253,-95.3332 359.571,-92.8135 357.52,-99.22 363.89,-90.2939 363.89,-90.2939"/>
<polygon fill="#067d11" stroke="#067d11" points="426.085,-43.563 436.503,-40.1412 429.776,-40.1908 433.468,-36.8187 433.468,-36.8187 433.468,-36.8187 429.776,-40.1908 430.433,-33.4961 426.085,-43.563 426.085,-43.563"/>
<text text-anchor="middle" x="445.5" y="-61.4" font-family="Times Roman,serif" font-size="14.00">categories</text>
</g>
<!-- Category -->
<g id="node4" class="node"><title>Category</title>
<ellipse fill="none" stroke="black" cx="482" cy="-111" rx="56.0679" ry="18.3848"/>
<text text-anchor="middle" x="482" y="-107.4" font-family="Times Roman,serif" font-size="14.00">Category</text>
</g>
<!-- Catvalue -->
<g id="node5" class="node"><title>Catvalue</title>
<ellipse fill="none" stroke="black" cx="588" cy="-19" rx="55.1543" ry="18.3848"/>
<text text-anchor="middle" x="588" y="-15.4" font-family="Times Roman,serif" font-size="14.00">Catvalue</text>
</g>
<!-- Category&#45;&gt;Catvalue -->
<g id="edge12" class="edge"><title>Category&#45;&gt;Catvalue</title>
<path fill="none" stroke="#b26265" d="M509.428,-88.7822C515.269,-83.9577 521.372,-78.8468 527,-74 538.366,-64.2125 550.69,-53.1825 561.266,-43.5835"/>
<ellipse fill="none" stroke="#b26265" cx="506.317" cy="-91.3391" rx="4.00002" ry="4.00002"/>
<polygon fill="#b26265" stroke="#b26265" points="561.576,-43.3011 571.999,-39.8928 565.272,-39.9337 568.968,-36.5663 568.968,-36.5663 568.968,-36.5663 565.272,-39.9337 565.938,-33.2399 561.576,-43.3011 561.576,-43.3011"/>
</g>
<!-- ActiveRecord::Base -->
<g id="node11" class="node"><title>ActiveRecord::Base</title>
<ellipse fill="none" stroke="black" cx="372" cy="-215" rx="104.151" ry="18.3848"/>
<text text-anchor="middle" x="372" y="-211.4" font-family="Times Roman,serif" font-size="14.00">ActiveRecord::Base</text>
</g>
<!-- ActiveRecord::Base&#45;&gt;Auditinit -->
<g id="edge8" class="edge"><title>ActiveRecord::Base&#45;&gt;Auditinit</title>
<path fill="none" stroke="black" d="M363.776,-196.407C355.403,-177.477 342.5,-148.304 334.153,-129.432"/>
</g>
<!-- ActiveRecord::Base&#45;&gt;AuditCatValue -->
<g id="edge10" class="edge"><title>ActiveRecord::Base&#45;&gt;AuditCatValue</title>
<path fill="none" stroke="black" d="M347.365,-196.832C325.065,-180.103 291.586,-154.274 264,-130 228.697,-98.9353 190.138,-59.8448 168.424,-37.3111"/>
</g>
<!-- ActiveRecord::Base&#45;&gt;Category -->
<g id="edge14" class="edge"><title>ActiveRecord::Base&#45;&gt;Category</title>
<path fill="none" stroke="black" d="M391.413,-196.646C411.766,-177.403 443.515,-147.386 463.514,-128.478"/>
</g>
<!-- ActiveRecord::Base&#45;&gt;Catvalue -->
<g id="edge16" class="edge"><title>ActiveRecord::Base&#45;&gt;Catvalue</title>
<path fill="none" stroke="black" d="M429.317,-199.485C467.293,-186.541 515.701,-164.539 547,-130 571.003,-103.512 581.318,-61.7522 585.463,-37.7171"/>
</g>
</g>
</svg>
