<?xml version="1.0" encoding="UTF-8" standalone="no"?>
<!DOCTYPE svg PUBLIC "-//W3C//DTD SVG 1.1//EN"
 "http://www.w3.org/Graphics/SVG/1.1/DTD/svg11.dtd">
<!-- Generated by graphviz version 2.26.3 (20100126.1600)
 -->
<!-- Title: models_diagram Pages: 1 -->
<svg width="707pt" height="590pt"
 viewBox="0.00 0.00 707.00 590.00" xmlns="http://www.w3.org/2000/svg" xmlns:xlink="http://www.w3.org/1999/xlink">
<g id="graph1" class="graph" transform="scale(1 1) rotate(0) translate(4 586)">
<title>models_diagram</title>
<polygon fill="white" stroke="white" points="-4,5 -4,-586 704,-586 704,5 -4,5"/>
<!-- _diagram_info -->
<g id="node1" class="node"><title>_diagram_info</title>
<text text-anchor="start" x="8" y="-565.8" font-family="Times Roman,serif" font-size="13.00">Models diagram</text>
<text text-anchor="start" x="8" y="-548.8" font-family="Times Roman,serif" font-size="13.00">Date: Apr 03 2014 &#45; 07:38</text>
<text text-anchor="start" x="8" y="-531.8" font-family="Times Roman,serif" font-size="13.00">Migration version: 20140403061239</text>
<text text-anchor="start" x="8" y="-514.8" font-family="Times Roman,serif" font-size="13.00">Generated by RailRoady 1.1.1</text>
<text text-anchor="start" x="8" y="-497.8" font-family="Times Roman,serif" font-size="13.00">http://railroady.prestonlee.com</text>
</g>
<!-- Auditinit -->
<g id="node2" class="node"><title>Auditinit</title>
<polyline fill="none" stroke="black" points="248.5,-181 389.5,-181 "/>
<path fill="none" stroke="black" d="M389.5,-181C395.5,-181 401.5,-187 401.5,-193"/>
<polyline fill="none" stroke="black" points="401.5,-193 401.5,-437 "/>
<path fill="none" stroke="black" d="M401.5,-437C401.5,-443 395.5,-449 389.5,-449"/>
<polyline fill="none" stroke="black" points="389.5,-449 248.5,-449 "/>
<path fill="none" stroke="black" d="M248.5,-449C242.5,-449 236.5,-443 236.5,-437"/>
<polyline fill="none" stroke="black" points="236.5,-437 236.5,-193 "/>
<path fill="none" stroke="black" d="M236.5,-193C236.5,-187 242.5,-181 248.5,-181"/>
<text text-anchor="middle" x="319" y="-432.4" font-family="Times Roman,serif" font-size="14.00">Auditinit</text>
<polyline fill="none" stroke="black" points="236.5,-423 401.5,-423 "/>
<text text-anchor="start" x="244.5" y="-406.4" font-family="Times Roman,serif" font-size="14.00">id :integer</text>
<text text-anchor="start" x="244.5" y="-388.4" font-family="Times Roman,serif" font-size="14.00">a_title :string</text>
<text text-anchor="start" x="244.5" y="-370.4" font-family="Times Roman,serif" font-size="14.00">a_purpose :string</text>
<text text-anchor="start" x="244.5" y="-352.4" font-family="Times Roman,serif" font-size="14.00">a_scope :string</text>
<text text-anchor="start" x="244.5" y="-334.4" font-family="Times Roman,serif" font-size="14.00">a_summary :string</text>
<text text-anchor="start" x="244.5" y="-316.4" font-family="Times Roman,serif" font-size="14.00">a_start_date :date</text>
<text text-anchor="start" x="244.5" y="-298.4" font-family="Times Roman,serif" font-size="14.00">a_end_date :date</text>
<text text-anchor="start" x="244.5" y="-280.4" font-family="Times Roman,serif" font-size="14.00">a_close_date :date</text>
<text text-anchor="start" x="244.5" y="-262.4" font-family="Times Roman,serif" font-size="14.00">a_target_date :date</text>
<text text-anchor="start" x="244.5" y="-244.4" font-family="Times Roman,serif" font-size="14.00">a_note :text</text>
<text text-anchor="start" x="244.5" y="-226.4" font-family="Times Roman,serif" font-size="14.00">catvalues_id :integer</text>
<text text-anchor="start" x="244.5" y="-208.4" font-family="Times Roman,serif" font-size="14.00">created_at :datetime</text>
<text text-anchor="start" x="244.5" y="-190.4" font-family="Times Roman,serif" font-size="14.00">updated_at :datetime</text>
</g>
<!-- AuditCatValue -->
<g id="node3" class="node"><title>AuditCatValue</title>
<polyline fill="none" stroke="black" points="82.5,-1 223.5,-1 "/>
<path fill="none" stroke="black" d="M223.5,-1C229.5,-1 235.5,-7 235.5,-13"/>
<polyline fill="none" stroke="black" points="235.5,-13 235.5,-113 "/>
<path fill="none" stroke="black" d="M235.5,-113C235.5,-119 229.5,-125 223.5,-125"/>
<polyline fill="none" stroke="black" points="223.5,-125 82.5,-125 "/>
<path fill="none" stroke="black" d="M82.5,-125C76.5,-125 70.5,-119 70.5,-113"/>
<polyline fill="none" stroke="black" points="70.5,-113 70.5,-13 "/>
<path fill="none" stroke="black" d="M70.5,-13C70.5,-7 76.5,-1 82.5,-1"/>
<text text-anchor="middle" x="153" y="-108.4" font-family="Times Roman,serif" font-size="14.00">AuditCatValue</text>
<polyline fill="none" stroke="black" points="70.5,-99 235.5,-99 "/>
<text text-anchor="start" x="78.5" y="-82.4" font-family="Times Roman,serif" font-size="14.00">auditinits_id :integer</text>
<text text-anchor="start" x="78.5" y="-64.4" font-family="Times Roman,serif" font-size="14.00">categories_id :integer</text>
<text text-anchor="start" x="78.5" y="-46.4" font-family="Times Roman,serif" font-size="14.00">catvalues_id :integer</text>
<text text-anchor="start" x="78.5" y="-28.4" font-family="Times Roman,serif" font-size="14.00">created_at :datetime</text>
<text text-anchor="start" x="78.5" y="-10.4" font-family="Times Roman,serif" font-size="14.00">updated_at :datetime</text>
</g>
<!-- Auditinit&#45;&gt;AuditCatValue -->
<g id="edge2" class="edge"><title>Auditinit&#45;&gt;AuditCatValue</title>
<path fill="none" stroke="#cb8686" d="M231.975,-182.89C220.761,-165.866 209.644,-148.99 199.447,-133.51"/>
<ellipse fill="none" stroke="#cb8686" cx="234.286" cy="-186.398" rx="4.00002" ry="4.00002"/>
<polygon fill="#cb8686" stroke="#cb8686" points="199.383,-133.413 197.64,-122.587 196.633,-129.238 193.882,-125.062 193.882,-125.062 193.882,-125.062 196.633,-129.238 190.124,-127.538 199.383,-133.413 199.383,-133.413"/>
</g>
<!-- Catvalues -->
<g id="node8" class="node"><title>Catvalues</title>
<ellipse fill="none" stroke="black" cx="313" cy="-63" rx="60.1041" ry="18.3848"/>
<text text-anchor="middle" x="313" y="-59.4" font-family="Times Roman,serif" font-size="14.00">Catvalues</text>
</g>
<!-- Auditinit&#45;&gt;Catvalues -->
<g id="edge4" class="edge"><title>Auditinit&#45;&gt;Catvalues</title>
<path fill="none" stroke="#706c19" d="M315.567,-170.796C314.848,-140.605 314.163,-111.84 313.682,-91.6287"/>
<polygon fill="#706c19" stroke="#706c19" points="315.569,-170.887 311.308,-180.991 315.688,-175.885 315.807,-180.884 315.807,-180.884 315.807,-180.884 315.688,-175.885 320.305,-180.777 315.569,-170.887 315.569,-170.887"/>
<polygon fill="#706c19" stroke="#706c19" points="313.681,-91.5993 317.942,-81.4949 313.562,-86.6007 313.443,-81.6021 313.443,-81.6021 313.443,-81.6021 313.562,-86.6007 308.944,-81.7092 313.681,-91.5993 313.681,-91.5993"/>
<text text-anchor="middle" x="348" y="-149.4" font-family="Times Roman,serif" font-size="14.00">catvalues</text>
</g>
<!-- Categories -->
<g id="node10" class="node"><title>Categories</title>
<ellipse fill="none" stroke="black" cx="454" cy="-63" rx="63.1385" ry="18.3848"/>
<text text-anchor="middle" x="454" y="-59.4" font-family="Times Roman,serif" font-size="14.00">Categories</text>
</g>
<!-- Auditinit&#45;&gt;Categories -->
<g id="edge6" class="edge"><title>Auditinit&#45;&gt;Categories</title>
<path fill="none" stroke="#adf008" d="M395.763,-171.709C412.391,-140.671 428.254,-111.06 439.213,-90.6022"/>
<polygon fill="#adf008" stroke="#adf008" points="395.57,-172.069 386.881,-178.759 393.209,-176.476 390.848,-180.884 390.848,-180.884 390.848,-180.884 393.209,-176.476 394.815,-183.009 395.57,-172.069 395.57,-172.069"/>
<polygon fill="#adf008" stroke="#adf008" points="439.312,-90.4169 448.001,-83.7271 441.673,-86.0095 444.035,-81.6021 444.035,-81.6021 444.035,-81.6021 441.673,-86.0095 440.068,-79.4771 439.312,-90.4169 439.312,-90.4169"/>
<text text-anchor="middle" x="445.5" y="-149.4" font-family="Times Roman,serif" font-size="14.00">categories</text>
</g>
<!-- Category -->
<g id="node4" class="node"><title>Category</title>
<polyline fill="none" stroke="black" points="433.5,-262 574.5,-262 "/>
<path fill="none" stroke="black" d="M574.5,-262C580.5,-262 586.5,-268 586.5,-274"/>
<polyline fill="none" stroke="black" points="586.5,-274 586.5,-356 "/>
<path fill="none" stroke="black" d="M586.5,-356C586.5,-362 580.5,-368 574.5,-368"/>
<polyline fill="none" stroke="black" points="574.5,-368 433.5,-368 "/>
<path fill="none" stroke="black" d="M433.5,-368C427.5,-368 421.5,-362 421.5,-356"/>
<polyline fill="none" stroke="black" points="421.5,-356 421.5,-274 "/>
<path fill="none" stroke="black" d="M421.5,-274C421.5,-268 427.5,-262 433.5,-262"/>
<text text-anchor="middle" x="504" y="-351.4" font-family="Times Roman,serif" font-size="14.00">Category</text>
<polyline fill="none" stroke="black" points="421.5,-342 586.5,-342 "/>
<text text-anchor="start" x="429.5" y="-325.4" font-family="Times Roman,serif" font-size="14.00">id :integer</text>
<text text-anchor="start" x="429.5" y="-307.4" font-family="Times Roman,serif" font-size="14.00">c_name :string</text>
<text text-anchor="start" x="429.5" y="-289.4" font-family="Times Roman,serif" font-size="14.00">created_at :datetime</text>
<text text-anchor="start" x="429.5" y="-271.4" font-family="Times Roman,serif" font-size="14.00">updated_at :datetime</text>
</g>
<!-- Catvalue -->
<g id="node5" class="node"><title>Catvalue</title>
<polyline fill="none" stroke="black" points="546.5,-1 687.5,-1 "/>
<path fill="none" stroke="black" d="M687.5,-1C693.5,-1 699.5,-7 699.5,-13"/>
<polyline fill="none" stroke="black" points="699.5,-13 699.5,-113 "/>
<path fill="none" stroke="black" d="M699.5,-113C699.5,-119 693.5,-125 687.5,-125"/>
<polyline fill="none" stroke="black" points="687.5,-125 546.5,-125 "/>
<path fill="none" stroke="black" d="M546.5,-125C540.5,-125 534.5,-119 534.5,-113"/>
<polyline fill="none" stroke="black" points="534.5,-113 534.5,-13 "/>
<path fill="none" stroke="black" d="M534.5,-13C534.5,-7 540.5,-1 546.5,-1"/>
<text text-anchor="middle" x="617" y="-108.4" font-family="Times Roman,serif" font-size="14.00">Catvalue</text>
<polyline fill="none" stroke="black" points="534.5,-99 699.5,-99 "/>
<text text-anchor="start" x="542.5" y="-82.4" font-family="Times Roman,serif" font-size="14.00">id :integer</text>
<text text-anchor="start" x="542.5" y="-64.4" font-family="Times Roman,serif" font-size="14.00">v_name :string</text>
<text text-anchor="start" x="542.5" y="-46.4" font-family="Times Roman,serif" font-size="14.00">categories_id :integer</text>
<text text-anchor="start" x="542.5" y="-28.4" font-family="Times Roman,serif" font-size="14.00">created_at :datetime</text>
<text text-anchor="start" x="542.5" y="-10.4" font-family="Times Roman,serif" font-size="14.00">updated_at :datetime</text>
</g>
<!-- Category&#45;&gt;Catvalue -->
<g id="edge12" class="edge"><title>Category&#45;&gt;Catvalue</title>
<path fill="none" stroke="#e4085c" d="M531.252,-254.225C547.374,-218.273 567.882,-172.537 584.8,-134.809"/>
<ellipse fill="none" stroke="#e4085c" cx="529.463" cy="-258.215" rx="4.00002" ry="4.00002"/>
<polygon fill="#e4085c" stroke="#e4085c" points="584.927,-134.525 593.125,-127.242 586.973,-129.963 589.019,-125.401 589.019,-125.401 589.019,-125.401 586.973,-129.963 584.913,-123.56 584.927,-134.525 584.927,-134.525"/>
</g>
<!-- ActiveRecord::Base -->
<g id="node11" class="node"><title>ActiveRecord::Base</title>
<ellipse fill="none" stroke="black" cx="372" cy="-535" rx="104.151" ry="18.3848"/>
<text text-anchor="middle" x="372" y="-531.4" font-family="Times Roman,serif" font-size="14.00">ActiveRecord::Base</text>
</g>
<!-- ActiveRecord::Base&#45;&gt;Auditinit -->
<g id="edge8" class="edge"><title>ActiveRecord::Base&#45;&gt;Auditinit</title>
<path fill="none" stroke="black" d="M367.481,-516.243C363.626,-500.241 357.704,-475.659 351.307,-449.105"/>
</g>
<!-- ActiveRecord::Base&#45;&gt;AuditCatValue -->
<g id="edge10" class="edge"><title>ActiveRecord::Base&#45;&gt;AuditCatValue</title>
<path fill="none" stroke="black" d="M323.49,-518.48C291.428,-505.036 251.181,-482.852 228,-450 158.95,-352.143 149.257,-207.23 150.036,-125.323"/>
</g>
<!-- ActiveRecord::Base&#45;&gt;Category -->
<g id="edge14" class="edge"><title>ActiveRecord::Base&#45;&gt;Category</title>
<path fill="none" stroke="black" d="M383.254,-516.243C402.706,-483.823 443.289,-416.186 472.025,-368.291"/>
</g>
<!-- ActiveRecord::Base&#45;&gt;Catvalue -->
<g id="edge16" class="edge"><title>ActiveRecord::Base&#45;&gt;Catvalue</title>
<path fill="none" stroke="black" d="M432.377,-519.916C491.405,-503.845 575.212,-477.042 595,-450 664.843,-354.552 649.157,-207.76 632.46,-125.107"/>
</g>
</g>
</svg>
